<svg height="512pt" viewBox="0 0 512.00013 512" width="512pt" xmlns="http://www.w3.org/2000/svg"><path d="m110.085938 380.652344c-5.855469 5.855468-15.351563 5.855468-21.210938 0-5.855469-5.859375-5.855469-15.355469 0-21.210938l19.445312-19.441406c2.925782-2.929688 6.765626-4.394531 10.601563-4.394531 3.839844 0 7.679687 1.464843 10.605469 4.394531 5.859375 5.855469 5.855468 15.351562 0 21.207031zm0 0"/><path d="m171.949219 403.625-19.441407 19.445312c-5.855468 5.855469-15.351562 5.855469-21.210937 0-5.855469-5.855468-5.855469-15.351562 0-21.210937l19.441406-19.441406c2.929688-2.929688 6.765625-4.394531 10.605469-4.394531 3.835938 0 7.675781 1.464843 10.601562 4.394531 5.859376 5.855469 5.859376 15.351562.003907 21.207031zm0 0"/><path d="m512 136.324219c0-36.117188-14.007812-70.015625-39.4375-95.445313l-1.410156-1.410156c-26.3125-26.3125-60.878906-39.46875-95.441406-39.46875-34.566407 0-69.128907 13.152344-95.445313 39.460938l-193.859375 193.78125c-2.8125 2.8125-4.394531 6.625-4.394531 10.605468 0 3.976563 1.578125 7.792969 4.390625 10.605469l11.3125 11.308594-93.324219 93.324219c-5.855469 5.855468-5.855469 15.355468 0 21.210937l127.257813 127.257813c2.8125 2.8125 6.628906 4.390624 10.605468 4.390624 3.976563 0 7.792969-1.578124 10.605469-4.390624l93.320313-93.324219 11.3125 11.3125c5.855468 5.855469 15.351562 5.855469 21.207031.003906l193.859375-193.78125c25.4375-25.425781 39.445312-59.320313 39.441406-95.441406zm-393.078125 150.648437 106.050781 106.050782-82.71875 82.71875-106.046875-106.050782zm363.082031-150.648437c.003906 28.105469-10.882812 54.46875-30.648437 74.226562l-183.257813 183.179688-11.304687-11.304688c-.003907 0-.003907-.003906-.007813-.007812l-138.566406-138.566407 183.25-183.175781c40.941406-40.925781 107.542969-40.929687 148.46875-.003906l1.410156 1.410156c19.769532 19.773438 30.65625 46.136719 30.65625 74.242188zm0 0"/><path d="m428.585938 189.324219c29.449218-29.746094 29.425781-77.929688-.054688-107.410157-14.351562-14.351562-33.464844-22.25-53.828125-22.25-.066406 0-.132813 0-.199219 0-20.300781.050782-39.296875 7.972657-53.484375 22.300782l-149.828125 151.328125c-5.808594 5.863281-5.78125 15.320312.054688 21.15625l86.25 86.253906c2.8125 2.8125 6.628906 4.394531 10.605468 4.394531h.039063c3.988281-.011718 7.8125-1.613281 10.617187-4.445312zm-21.316407-21.105469-139.21875 140.617188-65.042969-65.042969 139.324219-140.722657c8.53125-8.617187 19.984375-13.378906 32.25-13.410156h.117188c12.355469 0 23.9375 4.777344 32.625 13.464844 17.839843 17.839844 17.816406 47.042969-.054688 65.09375zm0 0"/></svg>