<svg height="512" viewBox="0 0 60 61" width="512" xmlns="http://www.w3.org/2000/svg"><g id="010---Good-and-Bad-Reviews" fill="none"><path id="Shape" d="m36.4 23.6c2.0800101-7.8655778-1.3747472-16.14853871-8.4273376-20.20498121s-15.9494138-2.87774753-21.70240249 2.87524112c-5.75298865 5.75298869-6.93168362 14.64981209-2.87524112 21.70240249s12.33940341 10.5073477 20.20498121 8.4273376z" fill="#24ae5f"/><path id="Shape" d="m34.467 23.6c2.686-11.389-4.967-22.6-15.467-22.6-8.836 0-16 8.06-16 18 0 11.925 10.059 20.394 20.089 17.4z" fill="#4fba6f"/><g fill="#4c8056"><circle id="Oval" cx="14" cy="15" r="3"/><circle id="Oval" cx="24" cy="15" r="3"/><path id="Shape" d="m25.645 22c.0961766-.000327.1883465.0384927.2553087.1075298s.1029521.1623483.0996913.2584702c-.1989537 3.7207541-3.2739305 6.6357007-7 6.6357007s-6.8010463-2.9149466-7-6.6357007c-.00299-.096391.0333639-.1898505.1007013-.2588856.0673375-.069035.1598631-.1077041.2562987-.1071144z"/></g><path id="Shape" d="m36.4 23.6c7.8655778-2.0800101 16.1485387 1.3747472 20.2049812 8.4273376s2.8777475 15.9494138-2.8752411 21.7024025c-5.7529887 5.7529886-14.6498121 6.9316836-21.7024025 2.8752411s-10.5073477-12.3394034-8.4273376-20.2049812z" fill="#c03a2b"/><path id="Shape" d="m36.911 23.6c10.095-3.013 20.089 5.547 20.089 17.4 0 9.94-7.164 18-16 18-10.534 0-18.146-11.239-15.467-22.6z" fill="#e64c3c"/><circle id="Oval" cx="36" cy="37" fill="#c03a2b" r="3"/><circle id="Oval" cx="46" cy="37" fill="#c03a2b" r="3"/><path id="Shape" d="m48.984 50.093c.0441543.2961609-.0807771.5921852-.3237663.7671627s-.5633507.1996103-.8302337.0638373c-4.3493922-1.9272901-9.3106078-1.9272901-13.66 0-.266883.135773-.5872445.1111402-.8302337-.0638373s-.3679206-.4710018-.3237663-.7671627c.9838191-3.5985568 4.2533819-6.0942327 7.984-6.0942327s7.0001809 2.4956759 7.984 6.0942327z" fill="#c03a2b"/><path id="Shape" d="m1 60c-.4043959-.0000863-.76893405-.2437275-.92367798-.6173454-.15474393-.373618-.06922994-.8036603.21667798-1.0896546l58-58c.3923789-.37897221 1.0160848-.37355237 1.4018186.01218143.3857338.38573379.3911536 1.00943968.0121814 1.40181857-62.002 62.002-58.062 58.293-58.707 58.293z" fill="#bdc3c7"/></g></svg>