<svg id="Capa_1" enable-background="new 0 0 512 512" height="512" viewBox="0 0 512 512" width="512" xmlns="http://www.w3.org/2000/svg"><g><g><path d="m437.622 35.387v466.311c0 5.687-4.615 10.302-10.302 10.302h-341.381c-5.687 0-10.302-4.615-10.302-10.302v-466.311z" fill="#f8f3f1"/><g fill="#efe2dd"><path d="m179.119 132.976c0 41.496-33.646 75.141-75.152 75.141-10.024 0-19.594-1.957-28.33-5.532v-139.228c8.736-3.564 18.306-5.532 28.33-5.532 41.506 0 75.152 33.645 75.152 75.151z"/><path d="m414.49 301.63-3.327-26.643c-.4-3.2-4.254-4.603-6.617-2.408l-19.674 18.271c-.919.853-1.622 1.913-2.051 3.091l-71.146 195.473c-.747 2.053.311 4.323 2.364 5.07l23.819 8.669c2.053.747 4.323-.311 5.07-2.364l71.146-195.473c.429-1.179.572-2.442.416-3.686z"/><path d="m437.622 35.387v466.311c0 5.687-4.615 10.302-10.302 10.302h-35.84c5.687 0 10.302-4.615 10.302-10.302v-466.311z"/></g><path d="m437.622 10.302v35.387h-361.985v-35.387c0-5.687 4.615-10.302 10.302-10.302h341.381c5.687 0 10.302 4.615 10.302 10.302z" fill="#fc9744"/><path d="m437.622 10.302v35.387h-35.84v-35.387c0-5.687-4.615-10.302-10.302-10.302h35.84c5.687 0 10.302 4.615 10.302 10.302z" fill="#fb8627"/><path d="m437.622 174.987v35.387l-152.518 55.516c-1.185.433-2.442.577-3.688.422l-26.64-3.327c-3.204-.402-4.605-4.255-2.411-6.624l18.265-19.666c.855-.927 1.916-1.628 3.091-2.05z" fill="#efe2dd"/><path d="m263.676 354.763-26.641 3.327c-1.246.155-2.503.01-3.688-.422l-157.71-57.402v-35.396l169.084 61.543c1.185.433 2.246 1.133 3.101 2.06l18.265 19.666c2.194 2.37.793 6.223-2.411 6.624z" fill="#efe2dd"/><g><path d="m480.57 168.229-195.467 71.144c-1.185.422-2.442.567-3.688.412l-3.08-.381-9.807-26.97 2.102-2.266c.855-.917 1.916-1.617 3.091-2.05l195.477-71.144c2.05-.752 4.327.309 5.068 2.359l8.674 23.818c.742 2.059-.32 4.326-2.37 5.078z" fill="#27d1b3"/><path d="m480.57 168.229-21.994 8.005c1.051-1.071 1.453-2.699.906-4.203l-8.87-24.364c-.567-1.545-1.978-2.545-3.523-2.648l22.108-8.046c2.05-.752 4.327.309 5.068 2.359l8.674 23.818c.743 2.06-.319 4.327-2.369 5.079z" fill="#20b69f"/><path d="m285.1 239.37c-1.178.429-2.442.572-3.686.416l-26.643-3.327c-3.2-.4-4.603-4.254-2.408-6.617l18.271-19.674c.853-.919 1.913-1.622 3.091-2.051z" fill="#f5a871"/></g><g><path d="m248.872 303.079-10.302 28.289-1.535.196c-1.246.155-2.503.01-3.688-.412l-195.466-71.155c-2.06-.742-3.111-3.008-2.369-5.068l8.674-23.818c.742-2.05 3.018-3.111 5.068-2.359l195.467 71.144c1.185.433 2.246 1.133 3.101 2.05z" fill="#5169cd"/><path d="m233.351 331.148c1.178.429 2.442.572 3.686.416l26.643-3.327c3.2-.4 4.603-4.254 2.408-6.617l-18.271-19.674c-.853-.919-1.913-1.622-3.091-2.051z" fill="#f5a871"/></g><g><path d="m403.008 282.414-71.144 195.477c-.752 2.05-3.018 3.111-5.069 2.359l-23.818-8.664c-2.05-.752-3.111-3.018-2.369-5.069l71.144-195.477c.433-1.174 1.133-2.235 2.06-3.091l2.648-2.462 26.527 9.653.443 3.585c.155 1.247.011 2.514-.422 3.689z" fill="#fb4a59"/><path d="m403.01 282.417c.429-1.178.572-2.442.416-3.686l-3.327-26.643c-.4-3.2-4.254-4.603-6.617-2.408l-19.674 18.271c-.919.853-1.622 1.913-2.051 3.091z" fill="#f5a871"/></g></g><g><g><circle cx="103.972" cy="107.599" fill="#fb4a59" r="75.148"/><path d="m179.121 107.601c0 41.499-33.643 75.149-75.149 75.149-13.231 0-25.667-3.418-36.462-9.43 4.595.892 9.333 1.349 14.183 1.349 41.506 0 75.149-33.643 75.149-75.149 0-28.268-15.615-52.901-38.688-65.726 34.723 6.626 60.967 37.15 60.967 73.807z" fill="#f82f40"/></g><g><g><path d="m103.972 126.909c-14.606 0-26.488-11.883-26.488-26.489 0-12.123 15.651-32.689 20.448-38.703 1.466-1.838 3.689-2.908 6.04-2.908s4.574 1.07 6.04 2.908c4.797 6.014 20.449 26.579 20.449 38.703 0 14.606-11.883 26.489-26.489 26.489zm0-47.421c-5.954 8.561-11.036 17.551-11.036 20.932 0 6.086 4.951 11.036 11.036 11.036 6.086 0 11.036-4.951 11.036-11.036 0-3.381-5.082-12.371-11.036-20.932z" fill="#f8f3f1"/></g><g><path d="m114.595 150.73h-21.245c-4.267 0-7.726-3.459-7.726-7.726s3.459-7.726 7.726-7.726h21.245c4.267 0 7.726 3.459 7.726 7.726s-3.459 7.726-7.726 7.726z" fill="#f8f3f1"/></g></g></g><g><path d="m403.487 98.194h-82.346c-4.267 0-7.726-3.459-7.726-7.726s3.459-7.726 7.726-7.726h82.346c4.267 0 7.726 3.459 7.726 7.726.001 4.267-3.459 7.726-7.726 7.726z" fill="#e0d3ce"/></g><g><path d="m411.219 90.471c0 4.265-3.461 7.726-7.726 7.726h-1.71v-15.453h1.71c4.264 0 7.726 3.462 7.726 7.727z" fill="#cdbfbb"/></g><g><path d="m289.714 98.194h-7.38c-4.267 0-7.726-3.459-7.726-7.726s3.459-7.726 7.726-7.726h7.38c4.267 0 7.726 3.459 7.726 7.726s-3.459 7.726-7.726 7.726z" fill="#e0d3ce"/></g></g></svg>