<svg id="Capa_1" enable-background="new 0 0 508.122 508.122" height="512" viewBox="0 0 508.122 508.122" width="512" xmlns="http://www.w3.org/2000/svg"><g><path d="m418.219 235.713v241.59c0 17.02-13.8 30.82-30.83 30.82h-246.3c-17.02 0-30.83-13.8-30.83-30.82v-136.79c29.28 14.76 72.588-26.162 115.268-25.152 22.61.52 34.198 23.504 54.128 3.064 16.74-17.17 17.46-29.068 24-46.468 8.39-22.36 43.824-22.464 114.354-35.584z" fill="#8ac9fe"/><path d="m359.598 469.642h-191.125c-4.142 0-7.5-3.358-7.5-7.5s3.358-7.5 7.5-7.5h191.125c4.142 0 7.5 3.358 7.5 7.5s-3.358 7.5-7.5 7.5z" fill="#ade7ff"/><path d="m171.909 508.122h-30.82c-17.03 0-30.83-13.8-30.83-30.82v-136.79c4.634 2.336 10.676-3.6 15.694-1.407 5.248 2.293 9.487 12.707 15.136 14.757v123.44c0 17.021 13.8 30.82 30.82 30.82z" fill="#60b7ff"/><path d="m418.216 30.827v204.883l-.205.658c-70.531 13.122-96.477 36.488-104.872 58.848-6.535 17.396-3.483 36.951-20.222 54.121-19.924 20.438-50.967 20.14-73.573 19.616-42.685-1.007-79.8-13.677-109.085-28.443l10.625-202.379-10.626-107.304c0-17.027 13.81-30.827 30.827-30.827h33.087l85.143 18.691 94.987-18.691h33.087c17.027 0 30.827 13.8 30.827 30.827z" fill="#a2f4c1"/><path d="m354.3 0v21.897c0 13.307-10.779 24.086-24.076 24.086h-131.968c-13.297 0-24.086-10.779-24.086-24.086v-21.897z" fill="#685e68"/><path d="m229.087 45.983h-30.827c-13.296 0-24.086-10.779-24.086-24.086v-21.897h30.827v21.897c0 13.307 10.789 24.086 24.086 24.086z" fill="#554e56"/><path d="m171.911 0c-17.027 0-30.827 13.8-30.827 30.827v323.032c-11.046-4.007-21.342-8.57-30.827-13.348v-309.684c.001-17.027 13.811-30.827 30.828-30.827z" fill="#78d0b1"/><path d="m163.772 77.931c-35.584-4.871-68.384 20.037-73.254 55.632-1.88 13.718.668 27.014 6.546 38.461l.01.01 53.854 135.914c1.254 3.165 5.723 3.185 6.998.031l55.395-136.839h.01c3.011-6.124 5.107-12.824 6.083-19.945 4.86-35.594-20.047-68.404-55.642-73.264zm-8.806 89.417c-13.759 0-24.918-11.149-24.918-24.908s11.159-24.918 24.918-24.918 24.908 11.159 24.908 24.918-11.149 24.908-24.908 24.908z" fill="#fe646f"/><path d="m127.885 172.027c-5.878-11.447-8.426-24.743-6.546-38.461 3.73-27.251 23.839-48.244 49.025-54.388-2.148-.524-4.357-.935-6.597-1.243-35.584-4.871-68.384 20.037-73.254 55.632-1.88 13.718.668 27.014 6.546 38.461l.01.01 53.854 135.914c1.254 3.165 5.723 3.185 6.998.031l12.053-29.758-42.078-106.187z" fill="#fd4755"/><path d="" fill="#8ac9fe"/></g></svg>