<svg id="Capa_1" enable-background="new 0 0 386.372 386.372" height="512" viewBox="0 0 386.372 386.372" width="512" xmlns="http://www.w3.org/2000/svg"><g><g><path d="m127.894 292.583h130.533v55.573h-130.533z" fill="#2f4859"/><path d="m11.369 20.25h363.635c6.278 0 11.368 5.089 11.368 11.369v258.528c0 6.278-5.089 11.368-11.368 11.368h-363.635c-6.279 0-11.369-5.089-11.369-11.368v-258.529c0-6.278 5.089-11.368 11.369-11.368z" fill="#3a556a"/><path d="m23.193 41.871h339.985v214.172h-339.985z" fill="#ebf0f3"/><path d="m287.812 340.747h-189.303c-14.015 0-25.376 11.361-25.376 25.376h239.801c.001-13.917-11.206-25.237-25.122-25.376z" fill="#3a556a"/><path d="m148.194 108.711h-15.783-1.928-12.08v118.148h.051l10.962 1.878 18.778-1.878h-.05.05z" fill="#d15241"/><path d="m130.483 108.711h-12.08v118.148h.051l10.962 1.878v-118.201z" fill="#e56353"/><path d="m131.548 106.832-13.145 1.879 11.013 1.825 18.778-1.825z" fill="#ce412d"/><path d="m186.055 139.262h-15.733-1.978-12.029v87.597h.051l10.911 1.878 18.778-1.878z" fill="#f7be56"/><path d="m168.344 139.262h-12.029v87.597h.051l10.911 1.878v-87.597z" fill="#fcd462"/><path d="m169.46 137.384-13.145 1.878 10.962 1.878 18.778-1.878z" fill="#fcd462"/><path d="m223.967 78.716h-15.733-1.979-12.028v148.143h.051l10.911 1.878 18.778-1.878z" fill="#1c75a1"/><path d="m206.255 78.716h-12.028v148.143h.051l10.911 1.878v-148.194z" fill="#27a2db"/><path d="m207.32 76.837-13.093 1.879 10.962 1.827 18.778-1.827z" fill="#2d93ba"/><path d="m261.878 96.225h-15.783-1.93-12.027v130.634h.051l10.911 1.878 18.778-1.878z" fill="#3ea69b"/><path d="m244.165 96.225h-12.027v130.634h.051l10.911 1.878v-130.685z" fill="#31978c"/><path d="m245.232 94.348-13.094 1.877 10.962 1.827 18.778-1.827z" fill="#44c4a1"/><g fill="#3a556a"><path d="m109.269 229.244v-150.528h-4.315v154.691h.762 3.553 171.134v-4.163z"/><path d="m79.782 83.842h13.601v3.146h-13.601z"/><path d="m79.782 103.635h13.601v3.146h-13.601z"/><path d="m79.782 123.377h13.601v3.146h-13.601z"/><path d="m79.782 143.17h13.601v3.146h-13.601z"/><path d="m79.782 162.964h13.601v3.146h-13.601z"/><path d="m79.782 182.705h13.601v3.146h-13.601z"/><path d="m79.782 202.499h13.601v3.146h-13.601z"/><path d="m79.782 222.292h13.601v3.146h-13.601z"/></g></g></g></svg>