<svg height="512" viewBox="0 0 58 51" width="512" xmlns="http://www.w3.org/2000/svg"><g id="Page-1" fill="none" fill-rule="evenodd"><g id="032---Sensor" fill-rule="nonzero"><path id="Shape" d="m56 47v-14c-.0032948-1.1032019-.8967981-1.9967052-2-2v-2c-.0032948-1.1032019-.8967981-1.9967052-2-2h-46c-1.10320187.0032948-1.9967052.8967981-2 2v2c-1.10320187.0032948-1.9967052.8967981-2 2v14c-1.10320187.0032948-1.9967052.8967981-2 2v1c0 .5522847.44771525 1 1 1h56c.5522847 0 1-.4477153 1-1v-1c-.0032948-1.1032019-.8967981-1.9967052-2-2z" fill="#3f5c6c"/><path id="Shape" d="m58 49v1c0 .5522847-.4477153 1-1 1h-56c-.55228475 0-1-.4477153-1-1v-1c.0032948-1.1032019.89679813-1.9967052 2-2h54c1.1032019.0032948 1.9967052.8967981 2 2z" fill="#bdc3c7"/><path id="Shape" d="m56 33v14h-54v-14c.0032948-1.1032019.89679813-1.9967052 2-2h50c1.1032019.0032948 1.9967052.8967981 2 2z" fill="#547580"/><path id="Shape" d="m52 36h-46c-.55228475 0-1-.4477153-1-1s.44771525-1 1-1h46c.5522847 0 1 .4477153 1 1s-.4477153 1-1 1z" fill="#95a5a5"/><circle id="Oval" cx="29" cy="21" fill="#ff5364" r="2"/><path id="Shape" d="m38.88 18.49c-.2669841.1332743-.5616054.2017909-.86.2-.770526.0019833-1.4724405-.4425625-1.8-1.14-1.3279225-2.782629-4.1367546-4.5544812-7.22-4.5544812s-5.8920775 1.7718522-7.22 4.5544812c-.4816963.9819837-1.6642496 1.3930178-2.6511586.9214946-.9869089-.4715231-1.4101411-1.6497658-.9488414-2.6414946 1.9878113-4.1727697 6.1979441-6.83060139 10.82-6.83060139s8.8321887 2.65783169 10.82 6.83060139c.2308232.4769766.2613563 1.0264434.0848009 1.5260575-.1765553.4996141-.5455414.9078973-1.0248009 1.1339425z" fill="#fb7b76"/><path id="Shape" d="m46.1 14.03c-.2666058.1343215-.5614828.2028976-.86.2-.7697431-.0007204-1.4703309-.444426-1.8-1.14-2.6637774-5.55572305-8.2786877-9.09051851-14.44-9.09051851s-11.7762226 3.53479546-14.44 9.09051851c-.3026746.6507074-.9315256 1.0887034-1.6468107 1.1470069s-1.4067667-.272071-1.8108252-.865172-.4584216-1.3575215-.1423641-2.0018349c3.3242544-6.94516392 10.3402617-11.36527939 18.04-11.36527939s14.7157456 4.42011547 18.04 11.36527939c.2308232.4769766.2613563 1.0264434.0848009 1.5260575-.1765553.4996141-.5455414.9078973-1.0248009 1.1339425z" fill="#ff5364"/></g></g></svg>