<svg id="Capa_1" enable-background="new 0 0 512 512" height="512" viewBox="0 0 512 512" width="512" xmlns="http://www.w3.org/2000/svg" xmlns:xlink="http://www.w3.org/1999/xlink"><linearGradient id="SVGID_1_" gradientUnits="userSpaceOnUse" x1="256" x2="256" y1="496" y2="16"><stop offset="0" stop-color="#5558ff"/><stop offset="1" stop-color="#00c0ff"/></linearGradient><g><g><path d="m202.983 392.803c-5.857 5.858-5.856 15.355.001 21.213 14.178 14.177 33.006 21.984 53.016 21.984s38.838-7.807 53.016-21.984c5.857-5.858 5.858-15.355.001-21.213-5.859-5.858-15.356-5.858-21.214-.001-8.511 8.511-19.806 13.198-31.803 13.198s-23.292-4.687-31.803-13.198c-5.859-5.858-15.354-5.857-21.214.001zm127.263 42.443c-19.832 19.832-46.2 30.754-74.246 30.754s-54.414-10.922-74.246-30.754c-5.857-5.857-15.355-5.857-21.213 0-5.858 5.858-5.858 15.355 0 21.213 25.498 25.499 59.399 39.541 95.459 39.541s69.961-14.042 95.459-39.541c5.858-5.858 5.858-15.355 0-21.213-5.857-5.857-15.355-5.857-21.213 0zm120.278-294.286c-7.204-75.594-90.313-118.563-155.653-81.33-25.563-27.89-60.887-43.63-98.871-43.63-71.077 0-129.501 55.208-134.633 124.997-36.19 12.457-61.367 46.482-61.367 85.003 0 49.576 41.083 90 91 90h330c49.967 0 91-40.48 91-90 0-38.557-25.23-72.612-61.476-85.04zm-29.524 145.04h-330c-33.636 0-61-26.916-61-60 0-28.353 20.651-53.081 49.105-58.798 7.068-1.42 12.127-7.669 12.044-14.878-.699-59.799 47.541-106.324 104.851-106.324 33.137 0 63.711 15.495 83.882 42.511 4.992 6.686 14.468 8.001 21.09 2.973 50.141-38.068 121.03-1.421 119.879 60.725-.139 7.252 4.932 13.564 12.043 14.993 28.454 5.717 49.106 30.445 49.106 58.798 0 33.084-27.364 60-61 60zm-150 75c0-8.284-6.716-15-15-15s-15 6.716-15 15 6.716 15 15 15 15-6.716 15-15z" fill="url(#SVGID_1_)"/></g></g></svg>