<svg id="color_line" height="512" viewBox="0 0 74 74" width="512" xmlns="http://www.w3.org/2000/svg" data-name="color line"><path d="m47.535 54.449 3.548 10.424h-28.158l3.548-10.424" fill="#eeefee"/><path d="m51.08 64.87h-2.83l-3.55-10.42h2.84z" fill="#eeefee"/><path d="m16.351 71.689h41.307v-2.113a4.706 4.706 0 0 0 -4.706-4.706h-31.9a4.706 4.706 0 0 0 -4.706 4.706z" fill="#e1e6e9"/><path d="m16.39 69.188c-.011.13-.039.255-.039.389v2.113h41.307v-2.114c0-.133-.028-.258-.039-.389z" fill="#d5d6db"/><path d="m57.41 69.58v2.108h-2.73v-2.108a4.712 4.712 0 0 0 -4.71-4.71h2.73a4.712 4.712 0 0 1 4.71 4.71z" fill="#d5d6db"/><path d="m57.658 72.189h-41.307a.5.5 0 0 1 -.5-.5v-2.113a5.212 5.212 0 0 1 5.206-5.206h31.9a5.212 5.212 0 0 1 5.206 5.206v2.113a.5.5 0 0 1 -.505.5zm-40.808-1h40.308v-1.613a4.211 4.211 0 0 0 -4.206-4.206h-31.9a4.211 4.211 0 0 0 -4.206 4.206z" fill="#323c6b"/><path d="m51.083 65.373h-28.158a.5.5 0 0 1 -.473-.661l3.548-10.424a.5.5 0 1 1 .946.322l-3.323 9.763h26.762l-3.323-9.763a.5.5 0 1 1 .946-.322l3.548 10.424a.5.5 0 0 1 -.473.661z" fill="#323c6b"/><circle cx="37.006" cy="30.125" fill="#e1e6e9" r="27.125"/><path d="m64.13 30.12a27.1 27.1 0 0 1 -14.89 24.22 27.126 27.126 0 0 0 -27.4-46.71 27.131 27.131 0 0 1 42.29 22.49z" fill="#d5d6db"/><circle cx="37.006" cy="31.625" fill="#9297ab" r="17.88"/><path d="m37.006 50a18.38 18.38 0 1 1 18.38-18.38 18.4 18.4 0 0 1 -18.38 18.38zm0-35.76a17.38 17.38 0 1 0 17.38 17.38 17.4 17.4 0 0 0 -17.38-17.375z" fill="#323c6b"/><path d="m37.125 18.313c-.757 6.787-5.224 13.074-13.409 14a13.3 13.3 0 1 0 13.409-14z" fill="#89c5cd"/><path d="m50.3 31.619a13.31 13.31 0 0 1 -21.549 10.481 12.962 12.962 0 0 0 5.428 1.17 13.314 13.314 0 0 0 8.226-23.8 13.3 13.3 0 0 1 7.895 12.149z" fill="#6eaaad"/><path d="m42.567 3.573v1.406a5.557 5.557 0 1 1 -11.114 0v-1.406a27.246 27.246 0 0 1 11.114 0z" fill="#9297ab"/><g fill="#323c6b"><path d="m37 11.042a6.064 6.064 0 0 1 -6.052-6.063v-1.406a.5.5 0 0 1 .4-.49 27.9 27.9 0 0 1 11.316 0 .5.5 0 0 1 .4.49v1.406a6.069 6.069 0 0 1 -6.064 6.063zm-5.047-7.059v1a5.057 5.057 0 1 0 10.114 0v-1a26.854 26.854 0 0 0 -10.114 0z"/><path d="m13.622 49.644a.5.5 0 0 1 -.389-.186l-.233-.282c-.121-.142-.241-.283-.354-.431a.5.5 0 1 1 .793-.609c.1.134.213.263.323.392.085.1.17.2.252.3a.5.5 0 0 1 -.388.814z"/><path d="m11.4 46.532a.5.5 0 0 1 -.424-.235 30.208 30.208 0 0 1 -4.46-12.692.5.5 0 0 1 .993-.112 29.221 29.221 0 0 0 4.311 12.274.5.5 0 0 1 -.423.765z"/><path d="m65.395 20.373a.5.5 0 0 1 -.47-.33 29.589 29.589 0 0 0 -6.53-10.487.5.5 0 1 1 .721-.693 30.59 30.59 0 0 1 6.75 10.84.5.5 0 0 1 -.3.641.507.507 0 0 1 -.171.029z"/><path d="m66.481 24.143a.5.5 0 0 1 -.488-.392l-.183-.814a.5.5 0 0 1 .974-.229l.186.827a.5.5 0 0 1 -.38.6.515.515 0 0 1 -.109.008z"/><path d="m37.006 57.75a27.625 27.625 0 1 1 27.625-27.625 27.656 27.656 0 0 1 -27.625 27.625zm0-54.25a26.625 26.625 0 1 0 26.625 26.625 26.655 26.655 0 0 0 -26.625-26.625z"/><path d="m36.971 45.447a13.794 13.794 0 0 1 -13.755-13.112.5.5 0 0 1 .443-.523c8.555-.964 12.308-7.633 12.968-13.554a.471.471 0 0 1 .5-.445 13.817 13.817 0 0 1 -.16 27.633zm-12.724-12.7a12.8 12.8 0 1 0 13.318-13.921c-1.015 7.516-6.179 12.911-13.317 13.92z"/></g><path d="m16.021 22.338a.651.651 0 0 1 -.6-.894c.176-.435.36-.865.561-1.286a.65.65 0 1 1 1.174.559c-.189.4-.364.8-.529 1.214a.651.651 0 0 1 -.606.407z" fill="#fff"/><path d="m18.118 18.337a.65.65 0 0 1 -.542-1.008 23.361 23.361 0 0 1 9.2-8.11.65.65 0 0 1 .572 1.167 22.069 22.069 0 0 0 -8.688 7.659.649.649 0 0 1 -.542.292z" fill="#fff"/></svg>