<svg height="512pt" viewBox="-11 0 512 512.001" width="512pt" xmlns="http://www.w3.org/2000/svg"><path d="m10.300781 125.683594c-5.6875 0-10.300781 4.609375-10.300781 10.300781v19.574219c0 5.6875 4.613281 10.300781 10.300781 10.300781h14.171875v-40.175781zm0 0" fill="#d8d8d8"/><path d="m10.300781 196.765625c-5.6875 0-10.300781 4.613281-10.300781 10.300781v19.574219c0 5.6875 4.613281 10.300781 10.300781 10.300781h13.144531v-40.175781zm0 0" fill="#d8d8d8"/><path d="m342.019531 25.753906c0-14.222656-11.527343-25.753906-25.753906-25.753906h-275.058594c-14.222656 0-25.753906 11.53125-25.753906 25.753906v460.492188c0 14.222656 11.53125 25.753906 25.753906 25.753906h275.058594c14.226563 0 25.757813-11.53125 25.757813-25.753906v-460.492188zm0 0" fill="#83cc9a"/><path d="m342.019531 25.753906v460.492188c0 14.226562-11.527343 25.753906-25.753906 25.753906h-30.90625c14.226563 0 25.753906-11.527344 25.753906-25.753906v-460.492188c0-14.226562-11.527343-25.753906-25.753906-25.753906h30.90625c14.226563 0 25.753906 11.527344 25.753906 25.753906zm0 0" fill="#4aa05e"/><path d="m311.117188 322.703125v132.636719c0 2.84375-2.308594 5.152344-5.152344 5.152344h-254.457032c-2.84375 0-5.148437-2.308594-5.148437-5.152344v-398.679688c0-2.84375 2.304687-5.152344 5.148437-5.152344h254.457032c2.84375 0 5.152344 2.308594 5.152344 5.152344zm0 0" fill="#fafeff"/><path d="m311.113281 367.886719v87.453125c0 2.84375-2.308593 5.152344-5.148437 5.152344h-254.457032c-2.84375 0-5.148437-2.308594-5.148437-5.152344v-87.453125zm0 0" fill="#e8e8e8"/><g fill="#4aa05e"><path d="m205.523438 33.480469h-53.570313c-4.269531 0-7.726563-3.457031-7.726563-7.726563 0-4.265625 3.457032-7.726562 7.726563-7.726562h53.570313c4.265624 0 7.722656 3.460937 7.722656 7.726562 0 4.269532-3.457032 7.726563-7.722656 7.726563zm0 0"/><path d="m234.367188 33.480469h-3.089844c-4.269532 0-7.726563-3.457031-7.726563-7.726563 0-4.265625 3.457031-7.726562 7.726563-7.726562h3.089844c4.269531 0 7.726562 3.460937 7.726562 7.726562 0 4.269532-3.460938 7.726563-7.726562 7.726563zm0 0"/><path d="m126.199219 33.480469h-3.089844c-4.269531 0-7.726563-3.457031-7.726563-7.726563 0-4.265625 3.457032-7.726562 7.726563-7.726562h3.089844c4.265625 0 7.726562 3.460937 7.726562 7.726562 0 4.269532-3.460937 7.726563-7.726562 7.726563zm0 0"/><path d="m197.28125 493.972656h-37.085938c-4.269531 0-7.726562-3.460937-7.726562-7.726562s3.457031-7.726563 7.726562-7.726563h37.085938c4.265625 0 7.726562 3.460938 7.726562 7.726563s-3.460937 7.726562-7.726562 7.726562zm0 0"/></g><path d="m240.433594 190.550781c-6.746094-28.339843-32.230469-49.417969-62.636719-49.417969-35.558594 0-64.382813 28.828126-64.382813 64.386719 0 44.8125 46.613282 97.351563 64.382813 97.351563 13.148437 0 42.082031-28.546875 56.25-61.699219l9.683594-31.53125zm0 0" fill="#ea9292"/><path d="m177.796875 239.003906c-18.488281 0-33.480469-14.992187-33.480469-33.484375 0-18.488281 14.992188-33.480469 33.480469-33.480469 18.492187 0 33.484375 14.992188 33.484375 33.480469 0 18.492188-14.992188 33.484375-33.484375 33.484375zm0 0" fill="#fff"/><path d="m116.925781 429.585938h-20.601562c-2.847657 0-5.152344-2.304688-5.152344-5.152344v-20.601563c0-2.847656 2.304687-5.152343 5.152344-5.152343h20.601562c2.847657 0 5.152344 2.304687 5.152344 5.152343v20.601563c0 2.84375-2.308594 5.152344-5.152344 5.152344zm0 0" fill="#e2b061"/><path d="m189.039062 429.585938h-20.605468c-2.84375 0-5.148438-2.304688-5.148438-5.152344v-20.601563c0-2.847656 2.304688-5.152343 5.148438-5.152343h20.605468c2.84375 0 5.152344 2.304687 5.152344 5.152343v20.601563c0 2.84375-2.308594 5.152344-5.152344 5.152344zm0 0" fill="#e2b061"/><path d="m261.152344 429.585938h-20.605469c-2.84375 0-5.148437-2.304688-5.148437-5.152344v-20.601563c0-2.847656 2.304687-5.152343 5.148437-5.152343h20.605469c2.84375 0 5.148437 2.304687 5.148437 5.152343v20.601563c0 2.84375-2.304687 5.152344-5.148437 5.152344zm0 0" fill="#e2b061"/><path d="m297.386719 183.878906 85.371093-1.359375 11.445313 13.175781-31.226563 81.851563-60.355468-30.507813zm0 0" fill="#e2b061"/><path d="m394.210938 195.691406-31.238282 81.847656-22.125-26.90625 25.898438-67.859374 16.015625-.257813zm0 0" fill="#d18b3f"/><path d="m279.15625 157.84375c-1.703125-2.4375-5.105469-2.917969-7.4375-1.074219-38.929688 30.722657-47.554688 86.871094-18.75 128.007813 28.804688 41.140625 84.519531 52.238281 126.703125 26.164062 2.527344-1.5625 3.238281-4.921875 1.535156-7.359375zm0 0" fill="#f2d67c"/><path d="m379.671875 310.941406c-15.328125 9.476563-32.449219 14.039063-49.40625 14.039063-29.71875 0-58.957031-14.007813-77.292969-40.199219-4.082031-5.828125-7.40625-11.957031-10.003906-18.273438 17.996094 18.039063 42.175781 27.566407 66.695312 27.566407 16.957032 0 34.078126-4.5625 49.40625-14.039063 1.234376-.773437 2.636719-2.566406 2.925782-3.886718l.976562 1.402343 18.234375 26.035157c1.699219 2.429687.992188 5.789062-1.535156 7.355468zm0 0" fill="#e2b061"/><path d="m417.96875 169.257812c-6.363281-9.085937-18.890625-11.296874-27.976562-4.933593-9.089844 6.363281-11.300782 18.890625-4.9375 27.980469 6.367187 9.089843 18.894531 11.296874 27.980468 4.933593 9.089844-6.363281 11.300782-18.890625 4.933594-27.980469zm0 0" fill="#a8704a"/><path d="m445.109375 214.9375c-1.363281 0-2.742187-.359375-3.992187-1.117188-3.652344-2.210937-4.820313-6.960937-2.613282-10.609374 8.875-14.664063 8.257813-33.210938-1.570312-47.246094-9.808594-14.003906-26.992188-20.9375-43.777344-17.652344-4.1875.828125-8.246094-1.914062-9.066406-6.101562-.820313-4.1875 1.910156-8.246094 6.101562-9.0625 22.773438-4.453126 46.089844 4.945312 59.398438 23.953124 13.335937 19.046876 14.175781 44.210938 2.136718 64.109376-1.453124 2.398437-4.003906 3.726562-6.617187 3.726562zm0 0" fill="#e8e8e8"/><path d="m469.152344 229.953125c-1.496094 0-3.011719-.433594-4.339844-1.339844-3.527344-2.402343-4.441406-7.210937-2.039062-10.734375 16.292968-23.921875 16.078124-55.925781-.523438-79.640625-16.535156-23.617187-46.433594-34.785156-74.398438-27.796875-4.132812 1.035156-8.335937-1.480468-9.371093-5.621094-1.03125-4.140624 1.484375-8.335937 5.621093-9.371093 16.609376-4.148438 33.921876-3.238281 50.070313 2.636719 16.527344 6.015624 30.613281 16.835937 40.734375 31.289062 20.265625 28.945312 20.523438 68.007812.640625 97.199219-1.496094 2.195312-3.925781 3.378906-6.394531 3.378906zm0 0" fill="#e8e8e8"/><path d="m311.113281 56.660156v25.753906h-264.753906v-25.753906c0-2.84375 2.304687-5.152344 5.148437-5.152344h254.457032c2.839844 0 5.148437 2.308594 5.148437 5.152344zm0 0" fill="#e8e8e8"/></svg>