<svg xmlns="http://www.w3.org/2000/svg" height="512pt" version="1.1" viewBox="-35 0 512 512.00002" width="512pt">
<g id="surface1">
<path d="M 388.414062 406.070312 L 52.964844 406.070312 C 28.414062 406.089844 7.09375 422.976562 1.457031 446.871094 L 0 459.035156 C 0 488.285156 23.714844 512 52.964844 512 L 388.414062 512 C 417.664062 512 441.378906 488.285156 441.378906 459.035156 L 439.921875 446.871094 C 434.285156 422.976562 412.964844 406.089844 388.414062 406.070312 Z M 70.621094 476.691406 C 60.871094 476.691406 52.964844 468.785156 52.964844 459.035156 C 52.964844 449.285156 60.871094 441.378906 70.621094 441.378906 C 80.371094 441.378906 88.277344 449.285156 88.277344 459.035156 C 88.277344 468.785156 80.371094 476.691406 70.621094 476.691406 Z M 70.621094 476.691406 " style=" stroke:none;fill-rule:nonzero;fill:rgb(67.45098%,67.058824%,69.411765%);fill-opacity:1;" />
<path d="M 441.378906 459.035156 C 441.363281 454.9375 440.875 450.855469 439.921875 446.871094 Z M 441.378906 459.035156 " style=" stroke:none;fill-rule:nonzero;fill:rgb(90.196078%,90.588235%,90.980392%);fill-opacity:1;" />
<path d="M 0 459.035156 L 1.457031 446.871094 C 0.503906 450.855469 0.015625 454.9375 0 459.035156 Z M 0 459.035156 " style=" stroke:none;fill-rule:nonzero;fill:rgb(90.196078%,90.588235%,90.980392%);fill-opacity:1;" />
<path d="M 353.101562 185.378906 C 353.101562 136.625 293.820312 97.101562 220.691406 97.101562 C 147.558594 97.101562 88.277344 136.625 88.277344 185.378906 C 88.277344 234.132812 147.558594 273.65625 220.691406 273.65625 C 293.820312 273.65625 353.101562 234.132812 353.101562 185.378906 Z M 353.101562 185.378906 " style=" stroke:none;fill-rule:nonzero;fill:rgb(47.058824%,72.54902%,92.156863%);fill-opacity:1;" />
<path d="M 88.277344 459.035156 C 88.277344 468.785156 80.371094 476.691406 70.621094 476.691406 C 60.871094 476.691406 52.964844 468.785156 52.964844 459.035156 C 52.964844 449.285156 60.871094 441.378906 70.621094 441.378906 C 80.371094 441.378906 88.277344 449.285156 88.277344 459.035156 Z M 88.277344 459.035156 " style=" stroke:none;fill-rule:nonzero;fill:rgb(67.45098%,67.058824%,69.411765%);fill-opacity:1;" />
<path d="M 88.277344 185.378906 C 88.277344 136.625 147.5625 97.101562 220.691406 97.101562 L 220.691406 0 L 102.011719 0 C 74.335938 0 51.328125 21.3125 49.207031 48.90625 L 1.457031 446.871094 C 7.09375 422.976562 28.414062 406.089844 52.964844 406.070312 L 220.691406 406.070312 L 220.691406 273.65625 C 147.5625 273.65625 88.277344 234.132812 88.277344 185.378906 Z M 88.277344 185.378906 " style=" stroke:none;fill-rule:nonzero;fill:rgb(81.960784%,82.745098%,83.137255%);fill-opacity:1;" />
<path d="M 392.175781 48.90625 C 390.050781 21.3125 367.042969 0 339.367188 0 L 220.691406 0 L 220.691406 97.101562 C 293.816406 97.101562 353.101562 136.625 353.101562 185.378906 C 353.101562 234.132812 293.816406 273.65625 220.691406 273.65625 L 220.691406 406.070312 L 388.414062 406.070312 C 412.964844 406.089844 434.285156 422.976562 439.921875 446.871094 Z M 392.175781 48.90625 " style=" stroke:none;fill-rule:nonzero;fill:rgb(90.196078%,90.588235%,90.980392%);fill-opacity:1;" />
<path d="M 70.621094 485.515625 C 55.996094 485.515625 44.136719 473.660156 44.136719 459.035156 C 44.136719 444.410156 55.996094 432.550781 70.621094 432.550781 C 85.246094 432.550781 97.101562 444.410156 97.101562 459.035156 C 97.101562 473.660156 85.246094 485.515625 70.621094 485.515625 Z M 70.621094 450.207031 C 65.746094 450.207031 61.792969 454.160156 61.792969 459.035156 C 61.792969 463.910156 65.746094 467.863281 70.621094 467.863281 C 75.496094 467.863281 79.449219 463.910156 79.449219 459.035156 C 79.449219 454.160156 75.496094 450.207031 70.621094 450.207031 Z M 70.621094 450.207031 " style=" stroke:none;fill-rule:nonzero;fill:rgb(42.745098%,43.137255%,44.313725%);fill-opacity:1;" />
<path d="M 388.414062 494.34375 C 383.539062 494.34375 379.585938 490.390625 379.585938 485.515625 L 379.585938 441.378906 C 379.585938 436.503906 383.539062 432.550781 388.414062 432.550781 C 393.289062 432.550781 397.242188 436.503906 397.242188 441.378906 L 397.242188 485.515625 C 397.242188 490.390625 393.289062 494.34375 388.414062 494.34375 Z M 388.414062 494.34375 " style=" stroke:none;fill-rule:nonzero;fill:rgb(94.509804%,94.901961%,94.901961%);fill-opacity:1;" />
<path d="M 353.101562 494.34375 C 348.226562 494.34375 344.277344 490.390625 344.277344 485.515625 L 344.277344 441.378906 C 344.277344 436.503906 348.226562 432.550781 353.101562 432.550781 C 357.980469 432.550781 361.929688 436.503906 361.929688 441.378906 L 361.929688 485.515625 C 361.929688 490.390625 357.980469 494.34375 353.101562 494.34375 Z M 353.101562 494.34375 " style=" stroke:none;fill-rule:nonzero;fill:rgb(94.509804%,94.901961%,94.901961%);fill-opacity:1;" />
<path d="M 317.792969 494.34375 C 312.917969 494.34375 308.964844 490.390625 308.964844 485.515625 L 308.964844 441.378906 C 308.964844 436.503906 312.917969 432.550781 317.792969 432.550781 C 322.667969 432.550781 326.621094 436.503906 326.621094 441.378906 L 326.621094 485.515625 C 326.621094 490.390625 322.667969 494.34375 317.792969 494.34375 Z M 317.792969 494.34375 " style=" stroke:none;fill-rule:nonzero;fill:rgb(94.509804%,94.901961%,94.901961%);fill-opacity:1;" />
<path d="M 282.484375 494.34375 C 277.609375 494.34375 273.65625 490.390625 273.65625 485.515625 L 273.65625 441.378906 C 273.65625 436.503906 277.609375 432.550781 282.484375 432.550781 C 287.359375 432.550781 291.308594 436.503906 291.308594 441.378906 L 291.308594 485.515625 C 291.308594 490.390625 287.359375 494.34375 282.484375 494.34375 Z M 282.484375 494.34375 " style=" stroke:none;fill-rule:nonzero;fill:rgb(94.509804%,94.901961%,94.901961%);fill-opacity:1;" />
</g>
</svg>