<svg id="Capa_1" enable-background="new 0 0 497.846 497.846" height="512" viewBox="0 0 497.846 497.846" width="512" xmlns="http://www.w3.org/2000/svg"><g><path d="m403.897 345.829 27.832-110.958c.656-2.614.722-5.341.194-7.984l-3.567-17.85 46.771-186.457c2.44-9.728-3.468-19.591-13.195-22.031-9.727-2.44-19.591 3.468-22.031 13.195l-46.771 186.458-11.57 14.053c-1.713 2.081-2.942 4.516-3.597 7.13l-31.215 124.444-20.459 65.337 60.757 9.72z" fill="#e5e1e5"/><path d="m151.098 345.829-31.215-124.444c-.656-2.614-1.884-5.049-3.597-7.13l-11.57-14.053-46.771-186.457c-2.44-9.727-12.303-15.635-22.031-13.195-9.727 2.44-15.635 12.304-13.195 22.031l46.771 186.457-3.567 17.85c-.528 2.643-.462 5.37.194 7.984l27.832 110.958 17.639 64.463 51.947-6.893z" fill="#e5e1e5"/><g fill="#d7d0d6"><path d="m409.323 456.806-52.594-21.701-6.956 5.681-7.509 4.686v30.273l7.379 6.801h59.08l8.713-.017 2.373-4.249z"/><path d="m316.073 440.436-1.447-5.331h-28.479l-3.654 5.331-3.893 6.607v31.561l3.893 3.942h33.58l5.477-2.158v-32.11z"/><path d="m248.923 440.436 2.118-3.945-12.063-4.867h-22.326l-1.299 8.812-4.733 6.636v31.215l4.733 4.259h33.57l3.705-4.365v-31.003z"/><path d="m181.773 440.436.807-4.685h-33.86l-.647 5.035-4.009 3.747-2.857 31.215 6.996 6.798h33.57l6.627-3.73v-28.252z"/></g><path d="m148.203 426.096-64.664 12.436-8.891 44.014h13.055 60.5z" fill="#c9bfc8"/><g><g id="XMLID_444_"><path d="m481.113 395.086-43.82-41.26c-5.46-5.13-12.67-8-20.17-8h-11.21l-27.548 22.71h-266.777l-19.655-22.71h-11.21c-7.5 0-14.71 2.87-20.17 8l-43.82 41.26c-10.31 9.71-16.15 23.24-16.15 37.4v57.88c0 4.13 3.35 7.48 7.47 7.48h59c1.78 0 3.51-.64 4.86-1.8l52.34-44.75c8.2-7.01 18.63-10.86 29.41-10.86h190.52c10.78 0 21.21 3.85 29.41 10.86l52.34 44.75c1.35 1.16 3.08 1.8 4.86 1.8h59c4.12 0 7.47-3.35 7.47-7.48v-57.88c0-14.16-5.84-27.69-16.15-37.4z" fill="#e5e1e5"/><path d="m73.21 489.416v-57.88c0-14.16 5.84-27.69 16.15-37.4l27.188-25.6h-4.961l-19.655-22.71h-11.21c-7.5 0-14.71 2.87-20.17 8l-43.82 41.26c-10.31 9.71-16.15 23.24-16.15 37.4v57.88c0 4.13 3.35 7.48 7.47 7.48h59c1.78 0 3.51-.64 4.86-1.8l2.687-2.297c-.871-1.223-1.389-2.716-1.389-4.333z" fill="#d7d0d6"/><g><g id="XMLID_446_"><g fill="#c9bfc8"><path d="m349.773 440.786-.13 41.76h-33.57v-42.11h28.11c1.88 0 3.75.12 5.59.35z"/><path d="m248.923 440.436h33.57v42.11h-33.57z"/><path d="m181.773 440.436h33.58v42.11h-33.58z"/></g></g></g></g><g><path d="m149.223 164.249c-1.663 0-3.337-.55-4.728-1.682-3.214-2.613-3.7-7.337-1.087-10.551 25.961-31.923 64.42-50.231 105.514-50.231 40.696 0 78.915 18.014 104.858 49.421 2.638 3.193 2.188 7.921-1.006 10.559-3.195 2.639-7.922 2.187-10.559-1.006-23.084-27.946-57.088-43.974-93.294-43.974-36.56 0-70.776 16.291-93.876 44.696-1.481 1.822-3.642 2.768-5.822 2.768z" fill="#62dbfb"/></g><g><path d="m171.029 185.097c-1.603 0-3.218-.512-4.584-1.568-3.276-2.535-3.876-7.246-1.342-10.521 20.272-26.197 50.823-41.223 83.82-41.223 32.583 0 62.897 14.719 83.168 40.384 2.568 3.25 2.014 7.967-1.236 10.534-3.25 2.565-7.967 2.013-10.534-1.237-17.41-22.04-43.433-34.681-71.398-34.681-28.32 0-54.547 12.903-71.957 35.402-1.478 1.91-3.695 2.91-5.937 2.91z" fill="#62dbfb"/></g><g><path d="m192.885 205.994c-1.489 0-2.993-.442-4.304-1.363-3.39-2.381-4.208-7.059-1.827-10.448 14.248-20.286 37.489-32.397 62.168-32.397 24.246 0 47.248 11.776 61.531 31.502 2.429 3.354 1.679 8.044-1.676 10.474-3.354 2.429-8.044 1.68-10.473-1.677-11.47-15.841-29.931-25.299-49.381-25.299-19.799 0-38.451 9.727-49.894 26.019-1.46 2.076-3.783 3.189-6.144 3.189z" fill="#62dbfb"/></g><g><path d="m215.006 227.142c-1.195.001-2.407-.286-3.535-.89-3.651-1.955-5.026-6.501-3.07-10.152 8.032-14.998 23.56-24.315 40.522-24.315 16.454 0 31.754 8.912 39.932 23.258 2.051 3.599.797 8.179-2.801 10.229-3.6 2.051-8.179.797-10.23-2.802-5.515-9.675-15.823-15.686-26.9-15.686-11.422 0-21.883 6.283-27.299 16.397-1.353 2.526-3.943 3.961-6.619 3.961z" fill="#62dbfb"/></g><circle cx="248.923" cy="245.729" fill="#62dbfb" r="16.193"/></g><g><path d="m405.913 345.826v34.51c0 6.02-4.88 10.91-10.9 10.91h-292.18c-6.02 0-10.9-4.89-10.9-10.91v-34.51z" fill="#c9bfc8"/></g><path d="m95.481 388.372 37.699-35.496c3.631-3.412 8.039-5.817 12.789-7.05h-54.036v34.51c0 3.183 1.373 6.041 3.548 8.036z" fill="#baafb9"/></g></svg>