<svg height="512" viewBox="0 0 64 64" width="512" xmlns="http://www.w3.org/2000/svg"><g id="led"><path d="m27 48h2v10h-2z"/><path d="m35 48.349h2v13.651h-2z"/><rect height="4" rx="1" width="24" x="20" y="43"/><path d="m30.84 35.99a1 1 0 0 1 -.73-.54l-.73-1.45h-.38v7h6v-7h-1.59l-1.7 1.71a1.032 1.032 0 0 1 -.87.28z"/><path d="m27 33a1 1 0 0 1 1-1h2a.977.977 0 0 1 .89.55l.38.76 1.02-1.02a1.033 1.033 0 0 1 .71-.29h3a1 1 0 0 1 1 1v8h4v-17a9 9 0 0 0 -18 0v17h4zm-3-9a8.009 8.009 0 0 1 8-8v2a6.006 6.006 0 0 0 -6 6z"/><path d="m31 2h2v6h-2z"/><path d="m11.908 9.908h2v6h-2z" transform="matrix(.707 -.707 .707 .707 -5.347 12.909)"/><path d="m2 31h6v2h-6z"/><path d="m56 31h6v2h-6z"/><path d="m48.092 11.908h6v2h-6z" transform="matrix(.707 -.707 .707 .707 5.837 39.908)"/></g></svg>