<?xml version="1.0" encoding="iso-8859-1"?>
<!-- Generator: Adobe Illustrator 19.0.0, SVG Export Plug-In . SVG Version: 6.00 Build 0)  -->
<svg version="1.1" id="Capa_1" xmlns="http://www.w3.org/2000/svg" xmlns:xlink="http://www.w3.org/1999/xlink" x="0px" y="0px"
	 viewBox="0 0 512 512" style="enable-background:new 0 0 512 512;" xml:space="preserve">
<g>
	<g>
		<path d="M407,240H105c-41.353,0-75-33.647-75-75c0-41.353,33.647-75,75-75h108.518c6.969,34.191,37.266,60,73.482,60h120
			c8.291,0,15-6.709,15-15V15c0-8.291-6.709-15-15-15H287c-36.216,0-66.513,25.809-73.482,60H105C47.109,60,0,107.109,0,165
			s47.109,105,105,105h302c41.353,0,75,34.647,75,76c0,41.353-33.647,76-75,76H300.482c-6.969-34.191-37.266-60-73.482-60H105
			c-8.291,0-15,6.709-15,15v120c0,8.291,6.709,15,15,15h122c36.216,0,66.513-25.809,73.482-60H407c57.891,0,105-48.109,105-106
			S464.891,240,407,240z M287,60h60c8.291,0,15,6.709,15,15s-6.709,15-15,15h-60c-8.291,0-15-6.709-15-15S278.709,60,287,60z
			 M227,452h-62c-8.291,0-15-6.709-15-15c0-8.291,6.709-15,15-15h62c8.291,0,15,6.709,15,15C242,445.291,235.291,452,227,452z"/>
	</g>
</g>
<g>
	<g>
		<path d="M497,30h-45v90h45c8.291,0,15-6.709,15-15V45C512,36.709,505.291,30,497,30z"/>
	</g>
</g>
<g>
	<g>
		<path d="M15,392c-8.291,0-15,6.709-15,15v60c0,8.291,6.709,15,15,15h45v-90H15z"/>
	</g>
</g>
<g>
</g>
<g>
</g>
<g>
</g>
<g>
</g>
<g>
</g>
<g>
</g>
<g>
</g>
<g>
</g>
<g>
</g>
<g>
</g>
<g>
</g>
<g>
</g>
<g>
</g>
<g>
</g>
<g>
</g>
</svg>
