<svg id="Capa_1" enable-background="new 0 0 512 512" height="512" viewBox="0 0 512 512" width="512" xmlns="http://www.w3.org/2000/svg"><g><g><path d="m123.376 162.317c-2.93-2.928-7.678-2.928-10.607 0l-32.789 32.789c-3.058 3.06-3.964 7.618-2.308 11.614 1.655 3.995 5.52 6.577 9.845 6.577h19.246l-24.815 24.814c-2.929 2.93-2.929 7.678 0 10.607 2.931 2.929 7.678 2.928 10.607 0l32.229-32.229c3.059-3.06 3.965-7.618 2.31-11.614-1.655-3.997-5.52-6.579-9.846-6.579h-19.246l25.374-25.373c2.929-2.928 2.929-7.676 0-10.606z"/><path d="m451.789 390.835c4.143 0 7.5-3.357 7.5-7.5v-20.573c0-12.41-10.097-22.507-22.507-22.507h-16.41v-244.69c0-52.695-42.87-95.565-95.565-95.565h-.808c-52.694 0-95.564 42.87-95.564 95.565v320.869c0 28.772-23.408 52.18-52.18 52.18s-52.179-23.407-52.179-52.18v-78.491c10.062-3.218 17.37-12.656 17.37-23.771v-10.942c35.507-3.57 63.319-33.626 63.319-70.058v-96.224c0-15.318-11.965-27.887-27.038-28.87v-85.438c0-12.483-10.156-22.64-22.64-22.64s-22.639 10.156-22.639 22.64v85.369h-60.132v-85.369c0-12.484-10.155-22.64-22.638-22.64s-22.639 10.156-22.639 22.64v85.438c-15.074.983-27.039 13.552-27.039 28.87v43.173c0 4.143 3.357 7.5 7.5 7.5s7.5-3.357 7.5-7.5v-43.173c0-7.687 6.253-13.939 13.939-13.939h146.887c7.687 0 13.939 6.253 13.939 13.939v96.224c0 30.556-24.859 55.415-55.415 55.415h-63.935c-30.556 0-55.415-24.859-55.415-55.415v-17.991c0-4.143-3.357-7.5-7.5-7.5s-7.5 3.357-7.5 7.5v17.991c0 36.433 27.812 66.489 63.32 70.058v10.942c0 11.116 7.308 20.554 17.37 23.772v78.491c0 52.695 42.87 95.565 95.564 95.565 52.695 0 95.565-42.87 95.565-95.565v-320.87c0-28.772 23.407-52.18 52.179-52.18h.808c28.771 0 52.18 23.407 52.18 52.18v244.689h-16.409c-12.41 0-22.507 10.097-22.507 22.507v76.205c0 8.785 5.062 16.405 12.42 20.111v28.774c0 13.315 10.833 24.148 24.148 24.148h48.082c13.315 0 24.147-10.833 24.147-24.148v-28.774c7.358-3.705 12.421-11.326 12.421-20.111v-20.572c0-4.143-3.357-7.5-7.5-7.5s-7.5 3.357-7.5 7.5v20.572c0 3.761-2.783 6.876-6.397 7.416-.012.002-.024.003-.036.005-1.149.166 3.911.049-77.279.086-4.14 0-7.507-3.367-7.507-7.507v-76.205c0-4.14 3.367-7.507 7.507-7.507h76.205c4.14 0 7.507 3.367 7.507 7.507v20.573c.001 4.144 3.358 7.501 7.501 7.501zm-394.473-282.826h-15.277v-85.369c0-4.213 3.427-7.64 7.639-7.64s7.639 3.427 7.639 7.64v85.369zm105.412 0h-15.278v-85.369c0-4.213 3.427-7.64 7.639-7.64 4.213 0 7.64 3.427 7.64 7.64v85.369zm202.762 353.465h66.378v26.378c0 5.045-4.104 9.148-9.147 9.148h-2.57v-13.717c0-4.143-3.357-7.5-7.5-7.5s-7.5 3.357-7.5 7.5v13.717h-11.915v-13.717c0-4.143-3.357-7.5-7.5-7.5s-7.5 3.357-7.5 7.5v13.717h-3.597c-5.045 0-9.148-4.104-9.148-9.148v-26.378zm-277.29-137.353c-5.454-.04-9.88-4.486-9.88-9.949v-10.585h48.126v10.585c0 5.464-4.427 9.91-9.882 9.949-.045 0-.097.003-.146.004h-28.072c-.049-.001-.1-.003-.146-.004zm317.172 16.134h-13.386v-244.69c0-37.043-30.137-67.18-67.18-67.18h-.808c-37.042 0-67.179 30.137-67.179 67.18v320.869c0 44.424-36.142 80.565-80.565 80.565s-80.564-36.141-80.564-80.564v-77.31h13.386v77.31c0 37.043 30.136 67.18 67.179 67.18s67.18-30.137 67.18-67.18v-320.87c0-44.424 36.141-80.565 80.564-80.565h.808c44.424 0 80.565 36.142 80.565 80.565z"/></g></g></svg>